<svg width="1160" height="379" viewBox="0 0 1160 379" fill="none" xmlns="http://www.w3.org/2000/svg">
<g opacity="0.5">
<rect y="0.499967" width="99" height="99" transform="matrix(0.866044 0.499967 -0.866044 0.499967 1039.71 -81.5988)" stroke="#141414" stroke-opacity="0.1"/>
<rect y="0.499967" width="99" height="99" transform="matrix(0.866044 0.499967 -0.866044 0.499967 1126.31 -31.6021)" stroke="#141414" stroke-opacity="0.1"/>
<rect y="0.499967" width="99" height="99" transform="matrix(0.866044 0.499967 -0.866044 0.499967 1212.91 18.3947)" stroke="#141414" stroke-opacity="0.1"/>
<rect y="0.499967" width="99" height="99" transform="matrix(0.866044 0.499967 -0.866044 0.499967 866.497 -81.5988)" stroke="#141414" stroke-opacity="0.1"/>
<rect y="0.499967" width="99" height="99" transform="matrix(0.866044 0.499967 -0.866044 0.499967 953.102 -31.6021)" stroke="#141414" stroke-opacity="0.1"/>
<rect y="0.499967" width="99" height="99" transform="matrix(0.866044 0.499967 -0.866044 0.499967 1039.71 18.3947)" stroke="#141414" stroke-opacity="0.1"/>
<rect y="0.499967" width="99" height="99" transform="matrix(0.866044 0.499967 -0.866044 0.499967 1126.31 68.3914)" stroke="#141414" stroke-opacity="0.1"/>
<rect y="0.499967" width="99" height="99" transform="matrix(0.866044 0.499967 -0.866044 0.499967 1212.91 118.388)" stroke="#141414" stroke-opacity="0.1"/>
<rect y="0.499967" width="99" height="99" transform="matrix(0.866044 0.499967 -0.866044 0.499967 693.288 -81.5988)" stroke="#141414" stroke-opacity="0.1"/>
<rect y="0.499967" width="99" height="99" transform="matrix(0.866044 0.499967 -0.866044 0.499967 779.893 -31.6021)" stroke="#141414" stroke-opacity="0.1"/>
<rect y="0.499967" width="99" height="99" transform="matrix(0.866044 0.499967 -0.866044 0.499967 866.497 18.3947)" stroke="#141414" stroke-opacity="0.1"/>
<rect y="0.499967" width="99" height="99" transform="matrix(0.866044 0.499967 -0.866044 0.499967 953.102 68.3914)" stroke="#141414" stroke-opacity="0.1"/>
<rect y="0.499967" width="99" height="99" transform="matrix(0.866044 0.499967 -0.866044 0.499967 1039.71 118.388)" stroke="#141414" stroke-opacity="0.1"/>
<rect y="0.499967" width="99" height="99" transform="matrix(0.866044 0.499967 -0.866044 0.499967 1126.31 168.385)" stroke="#141414" stroke-opacity="0.1"/>
<rect y="0.499967" width="99" height="99" transform="matrix(0.866044 0.499967 -0.866044 0.499967 1212.91 218.382)" stroke="#141414" stroke-opacity="0.1"/>
<rect y="0.499967" width="99" height="99" transform="matrix(0.866044 0.499967 -0.866044 0.499967 606.684 -31.6021)" stroke="#141414" stroke-opacity="0.1"/>
<rect y="0.499967" width="99" height="99" transform="matrix(0.866044 0.499967 -0.866044 0.499967 693.288 18.3947)" stroke="#141414" stroke-opacity="0.1"/>
<rect y="0.499967" width="99" height="99" transform="matrix(0.866044 0.499967 -0.866044 0.499967 779.893 68.3914)" stroke="#141414" stroke-opacity="0.1"/>
<rect y="0.499967" width="99" height="99" transform="matrix(0.866044 0.499967 -0.866044 0.499967 866.497 118.388)" stroke="#141414" stroke-opacity="0.1"/>
<rect y="0.499967" width="99" height="99" transform="matrix(0.866044 0.499967 -0.866044 0.499967 953.102 168.385)" stroke="#141414" stroke-opacity="0.1"/>
<rect y="0.499967" width="99" height="99" transform="matrix(0.866044 0.499967 -0.866044 0.499967 1039.71 218.382)" stroke="#141414" stroke-opacity="0.1"/>
<rect y="0.499967" width="99" height="99" transform="matrix(0.866044 0.499967 -0.866044 0.499967 1126.31 268.378)" stroke="#141414" stroke-opacity="0.1"/>
<rect y="0.499967" width="99" height="99" transform="matrix(0.866044 0.499967 -0.866044 0.499967 1212.91 318.375)" stroke="#141414" stroke-opacity="0.1"/>
<rect y="0.499967" width="99" height="99" transform="matrix(0.866044 0.499967 -0.866044 0.499967 520.079 18.3947)" stroke="#141414" stroke-opacity="0.1"/>
<rect y="0.499967" width="99" height="99" transform="matrix(0.866044 0.499967 -0.866044 0.499967 606.684 68.3914)" stroke="#141414" stroke-opacity="0.1"/>
<rect y="0.499967" width="99" height="99" transform="matrix(0.866044 0.499967 -0.866044 0.499967 693.288 118.388)" stroke="#141414" stroke-opacity="0.1"/>
<rect y="0.499967" width="99" height="99" transform="matrix(0.866044 0.499967 -0.866044 0.499967 779.893 168.385)" stroke="#141414" stroke-opacity="0.1"/>
<rect y="0.499967" width="99" height="99" transform="matrix(0.866044 0.499967 -0.866044 0.499967 866.497 218.382)" stroke="#141414" stroke-opacity="0.1"/>
<rect y="0.499967" width="99" height="99" transform="matrix(0.866044 0.499967 -0.866044 0.499967 953.102 268.378)" stroke="#141414" stroke-opacity="0.1"/>
<rect y="0.499967" width="99" height="99" transform="matrix(0.866044 0.499967 -0.866044 0.499967 1039.71 318.375)" stroke="#141414" stroke-opacity="0.1"/>
<rect y="0.499967" width="99" height="99" transform="matrix(0.866044 0.499967 -0.866044 0.499967 1126.31 368.372)" stroke="#141414" stroke-opacity="0.1"/>
<rect y="0.499967" width="99" height="99" transform="matrix(0.866044 0.499967 -0.866044 0.499967 433.475 68.3914)" stroke="#141414" stroke-opacity="0.1"/>
<rect y="0.499967" width="99" height="99" transform="matrix(0.866044 0.499967 -0.866044 0.499967 520.079 118.388)" stroke="#141414" stroke-opacity="0.1"/>
<rect y="0.499967" width="99" height="99" transform="matrix(0.866044 0.499967 -0.866044 0.499967 606.684 168.385)" stroke="#141414" stroke-opacity="0.1"/>
<rect y="0.499967" width="99" height="99" transform="matrix(0.866044 0.499967 -0.866044 0.499967 693.288 218.382)" stroke="#141414" stroke-opacity="0.1"/>
<rect y="0.499967" width="99" height="99" transform="matrix(0.866044 0.499967 -0.866044 0.499967 779.893 268.378)" stroke="#141414" stroke-opacity="0.1"/>
<rect y="0.499967" width="99" height="99" transform="matrix(0.866044 0.499967 -0.866044 0.499967 866.497 318.375)" stroke="#141414" stroke-opacity="0.1"/>
<rect y="0.499967" width="99" height="99" transform="matrix(0.866044 0.499967 -0.866044 0.499967 953.102 368.372)" stroke="#141414" stroke-opacity="0.1"/>
<rect y="0.499967" width="99" height="99" transform="matrix(0.866044 0.499967 -0.866044 0.499967 346.871 118.388)" stroke="#141414" stroke-opacity="0.1"/>
<rect y="0.499967" width="99" height="99" transform="matrix(0.866044 0.499967 -0.866044 0.499967 433.475 168.385)" stroke="#141414" stroke-opacity="0.1"/>
<rect y="0.499967" width="99" height="99" transform="matrix(0.866044 0.499967 -0.866044 0.499967 520.079 218.382)" stroke="#141414" stroke-opacity="0.1"/>
<rect y="0.499967" width="99" height="99" transform="matrix(0.866044 0.499967 -0.866044 0.499967 606.684 268.378)" stroke="#141414" stroke-opacity="0.1"/>
<rect y="0.499967" width="99" height="99" transform="matrix(0.866044 0.499967 -0.866044 0.499967 693.288 318.375)" stroke="#141414" stroke-opacity="0.1"/>
<rect y="0.499967" width="99" height="99" transform="matrix(0.866044 0.499967 -0.866044 0.499967 779.893 368.372)" stroke="#141414" stroke-opacity="0.1"/>
<rect y="0.499967" width="99" height="99" transform="matrix(0.866044 0.499967 -0.866044 0.499967 260.266 168.385)" stroke="#141414" stroke-opacity="0.1"/>
<rect y="0.499967" width="99" height="99" transform="matrix(0.866044 0.499967 -0.866044 0.499967 346.871 218.382)" stroke="#141414" stroke-opacity="0.1"/>
<rect y="0.499967" width="99" height="99" transform="matrix(0.866044 0.499967 -0.866044 0.499967 433.475 268.378)" stroke="#141414" stroke-opacity="0.1"/>
<rect y="0.499967" width="99" height="99" transform="matrix(0.866044 0.499967 -0.866044 0.499967 520.079 318.375)" stroke="#141414" stroke-opacity="0.1"/>
<rect y="0.499967" width="99" height="99" transform="matrix(0.866044 0.499967 -0.866044 0.499967 606.684 368.372)" stroke="#141414" stroke-opacity="0.1"/>
<rect y="0.499967" width="99" height="99" transform="matrix(0.866044 0.499967 -0.866044 0.499967 173.662 218.382)" stroke="#141414" stroke-opacity="0.1"/>
<rect y="0.499967" width="99" height="99" transform="matrix(0.866044 0.499967 -0.866044 0.499967 260.266 268.378)" stroke="#141414" stroke-opacity="0.1"/>
<rect y="0.499967" width="99" height="99" transform="matrix(0.866044 0.499967 -0.866044 0.499967 346.871 318.375)" stroke="#141414" stroke-opacity="0.1"/>
<rect y="0.499967" width="99" height="99" transform="matrix(0.866044 0.499967 -0.866044 0.499967 433.475 368.372)" stroke="#141414" stroke-opacity="0.1"/>
<rect y="0.499967" width="99" height="99" transform="matrix(0.866044 0.499967 -0.866044 0.499967 87.0574 268.378)" stroke="#141414" stroke-opacity="0.1"/>
<rect y="0.499967" width="99" height="99" transform="matrix(0.866044 0.499967 -0.866044 0.499967 173.662 318.375)" stroke="#141414" stroke-opacity="0.1"/>
<rect y="0.499967" width="99" height="99" transform="matrix(0.866044 0.499967 -0.866044 0.499967 260.266 368.372)" stroke="#141414" stroke-opacity="0.1"/>
</g>
</svg>
